<svg stroke="#000000" fill="#000000" stroke-width="0" viewBox="0 0 512 512" height="200px" width="200px" xmlns="http://www.w3.org/2000/svg"><rect width="416" height="320" x="48" y="96" fill="none" stroke-linejoin="round" stroke-width="32" rx="28" ry="28"></rect><rect width="80" height="80" x="384" y="336" fill="none" stroke-linejoin="round" stroke-width="32" rx="28" ry="28"></rect><rect width="80" height="80" x="384" y="256" fill="none" stroke-linejoin="round" stroke-width="32" rx="28" ry="28"></rect><rect width="80" height="80" x="384" y="176" fill="none" stroke-linejoin="round" stroke-width="32" rx="28" ry="28"></rect><rect width="80" height="80" x="384" y="96" fill="none" stroke-linejoin="round" stroke-width="32" rx="28" ry="28"></rect><rect width="80" height="80" x="48" y="336" fill="none" stroke-linejoin="round" stroke-width="32" rx="28" ry="28"></rect><rect width="80" height="80" x="48" y="256" fill="none" stroke-linejoin="round" stroke-width="32" rx="28" ry="28"></rect><rect width="80" height="80" x="48" y="176" fill="none" stroke-linejoin="round" stroke-width="32" rx="28" ry="28"></rect><rect width="80" height="80" x="48" y="96" fill="none" stroke-linejoin="round" stroke-width="32" rx="28" ry="28"></rect><rect width="256" height="160" x="128" y="96" fill="none" stroke-linejoin="round" stroke-width="32" rx="28" ry="28"></rect><rect width="256" height="160" x="128" y="256" fill="none" stroke-linejoin="round" stroke-width="32" rx="28" ry="28"></rect></svg>