<svg stroke="currentColor" fill="none" stroke-width="2" viewBox="0 0 24 24" stroke-linecap="round" stroke-linejoin="round" height="200px" width="200px" xmlns="http://www.w3.org/2000/svg"><path d="M6 12l-1.752 6.13a1 1 0 0 0 .592 1.205l6.282 2.503a2.46 2.46 0 0 0 1.756 0l6.282 -2.503a1 1 0 0 0 .592 -1.204l-1.752 -6.131l1.752 -6.13a1 1 0 0 0 -.592 -1.205l-6.282 -2.503a2.46 2.46 0 0 0 -1.756 0l-6.282 2.503a1 1 0 0 0 -.592 1.204l1.752 6.131z"></path><path d="M4.5 5.5l6.622 2.33a2.35 2.35 0 0 0 1.756 0l6.622 -2.33"></path><path d="M6 12l5.21 1.862a2.34 2.34 0 0 0 1.58 0l5.21 -1.862"></path><path d="M12 22v-14"></path></svg>